<svg version="1.1" id="Layer_1" xmlns="http://www.w3.org/2000/svg" xmlns:xlink="http://www.w3.org/1999/xlink" x="0px" y="0px"
	 width="100%" viewBox="0 0 1024 672" enable-background="new 0 0 1024 672" xml:space="preserve">
<path fill="#000000" opacity="1.000000" stroke="none" 
	d="
M458.527832,322.964905 
	C460.514404,329.388885 459.188049,334.214539 453.378510,337.004791 
	C452.875458,339.009399 454.308167,340.033325 454.815796,341.384277 
	C456.818451,346.713928 455.935211,350.975189 451.380615,354.139587 
	C447.629822,356.745544 446.840546,360.024628 447.651306,364.122009 
	C448.761536,369.732849 449.082062,375.449646 447.898468,380.998657 
	C445.365967,392.871918 434.701385,399.618561 420.854614,398.719788 
	C410.890808,398.073029 400.968933,397.083435 391.110962,395.509369 
	C382.733185,394.171631 376.137299,397.257324 370.692230,403.433990 
	C363.791901,411.261475 359.867279,420.565521 357.458252,430.549072 
	C356.829834,433.153442 355.866150,435.087158 353.568878,436.566376 
	C329.904663,451.803833 316.224884,473.957336 309.196869,500.731567 
	C308.593567,503.029999 308.708984,505.703705 306.113403,508.134216 
	C304.203522,501.265686 302.502411,494.903137 300.664062,488.580505 
	C293.831665,465.081696 283.612427,443.450134 266.234039,425.694214 
	C258.460602,417.751984 249.654617,411.264771 239.855850,406.120728 
	C237.191376,404.721954 236.027069,403.348785 236.474487,399.961761 
	C237.671066,390.904022 238.464722,381.799622 238.946609,372.643585 
	C239.984268,352.927521 234.567673,335.165619 224.482498,318.506958 
	C218.619400,308.822327 212.210785,299.468140 207.240540,289.240997 
	C172.926010,218.632492 206.500214,139.562912 278.439911,116.315079 
	C318.474640,103.377579 358.255157,104.959923 395.292023,126.319153 
	C426.245819,144.170303 443.774292,172.026901 449.444183,207.371292 
	C451.043579,217.341415 451.739075,227.095825 448.644165,236.959183 
	C447.321869,241.173309 448.494537,245.468185 450.674133,249.464264 
	C457.545013,262.061310 465.663849,273.877502 473.274719,286.011536 
	C474.334503,287.701172 475.414215,289.408569 476.211243,291.227570 
	C479.834290,299.496185 476.634247,306.203217 467.987518,308.646301 
	C467.188812,308.871948 466.385223,309.109833 465.567474,309.234161 
	C453.597260,311.053497 453.456177,311.309418 458.527832,322.964905 
M354.697876,250.420914 
	C341.601196,256.747253 329.144104,255.946594 317.863190,246.479706 
	C309.905701,239.801834 307.661316,227.797531 312.192230,219.189362 
	C316.392487,211.209412 328.036804,205.996979 336.513428,208.302292 
	C342.836334,210.021881 346.371307,214.202560 346.308624,219.886642 
	C346.247101,225.465240 343.670624,228.265961 336.618256,230.039841 
	C334.343597,230.611984 332.168579,231.184509 332.539001,234.030075 
	C332.906586,236.853882 335.119843,237.644669 337.687683,237.696838 
	C343.693726,237.818909 348.325439,235.195312 351.662964,230.372574 
	C358.769562,220.103607 352.272156,204.459717 339.205566,200.525665 
	C329.671326,197.655121 321.105591,200.559616 313.190430,205.770432 
	C306.707428,210.038437 303.338104,216.260223 302.175751,223.963150 
	C300.384521,235.833725 305.092651,245.124695 313.307556,252.965988 
	C315.985046,255.521698 315.823151,257.140808 313.799408,260.008118 
	C304.787384,272.776581 298.000916,286.576752 295.038361,302.105621 
	C294.414948,305.373383 294.288177,308.977844 291.635895,312.249420 
	C287.513550,306.828949 286.307220,299.678070 280.658478,296.071899 
	C275.171692,292.569153 269.349457,289.469391 262.618683,287.521606 
	C263.116638,292.074066 265.422150,294.729095 268.368317,296.676178 
	C278.640930,303.465179 284.171936,313.479156 288.213501,324.680603 
	C289.467316,328.155640 289.897400,332.058960 292.371338,334.997040 
	C294.508301,334.450378 294.602356,332.773712 295.039642,331.406769 
	C297.625610,323.323364 300.289307,315.261688 302.691437,307.123260 
	C306.985016,292.576691 311.050446,277.983459 320.162628,265.426453 
	C322.522644,262.174286 324.847504,260.913116 328.937012,261.925201 
	C337.402924,264.020355 345.759521,263.370636 353.822357,259.718872 
	C360.719208,256.595245 366.729919,252.137573 372.694580,247.591797 
	C376.893097,244.391998 381.190399,242.408905 386.893127,242.810364 
	C396.044495,243.454605 404.451538,240.386597 411.150513,234.085129 
	C420.345032,225.436188 423.704010,214.450409 420.947662,202.210236 
	C417.943359,188.868942 409.835968,179.688293 396.333466,175.916321 
	C393.687927,175.177292 391.701843,174.750473 391.518005,171.010925 
	C390.475128,149.794022 367.541870,132.595963 346.631409,136.918472 
	C339.942657,138.301117 334.358917,141.635651 329.311768,146.192947 
	C325.272858,142.898087 321.844879,139.492538 317.364380,137.458466 
	C299.080200,129.157654 275.479065,136.391876 264.820648,153.928101 
	C262.987427,156.944260 261.041534,158.440948 257.513489,158.803772 
	C251.051605,159.468292 245.488754,162.442139 240.491043,166.570908 
	C226.938690,177.766876 220.785416,196.842178 227.336075,210.337036 
	C229.477036,214.747574 228.898010,217.625137 226.955231,221.537643 
	C216.113495,243.371490 227.706589,270.574036 250.721939,275.941467 
	C266.932098,279.721832 281.076843,273.042999 294.196808,264.077240 
	C295.386047,263.264557 296.671539,261.885010 295.745911,260.268219 
	C294.703705,258.447784 292.805481,258.984406 291.247620,259.529572 
	C285.591492,261.508850 280.010162,263.705841 274.332275,265.617798 
	C267.483582,267.924011 260.446503,269.454407 253.236908,267.753540 
	C240.706284,264.797363 231.996979,253.112442 231.689240,239.232971 
	C231.372635,224.954651 239.490433,212.850006 252.138000,209.425644 
	C260.745544,207.095139 269.053650,208.165985 276.335144,213.698441 
	C282.793365,218.605423 283.366913,225.506470 281.782440,232.687820 
	C280.516968,238.423187 276.725342,241.939102 270.745758,242.767349 
	C264.820312,243.588074 261.447510,241.274307 260.927338,235.842865 
	C260.718689,233.664566 260.404785,231.590073 257.809021,231.599579 
	C255.396042,231.608429 253.826096,233.279922 253.377121,235.628891 
	C252.866043,238.302765 253.171005,240.887650 254.669937,243.317078 
	C258.232056,249.090546 266.130188,252.643707 272.803955,251.352005 
	C287.959808,248.418564 295.334198,232.587631 288.389252,217.894287 
	C280.504089,201.211700 260.951599,195.337372 243.646408,204.359665 
	C241.200974,205.634613 239.211151,207.840088 235.754532,208.397675 
	C232.222382,199.549286 232.694626,191.098053 237.296768,182.982162 
	C242.124451,174.468552 249.326477,169.152756 259.725800,167.269592 
	C259.047058,171.910507 259.561920,175.807831 260.383240,179.682892 
	C263.946838,196.496506 283.081207,207.665649 299.377075,202.429092 
	C311.252869,198.612915 318.625702,186.546158 315.681366,175.744736 
	C313.512970,167.789871 304.738373,162.557800 296.982086,164.657562 
	C294.655640,165.287369 292.193726,166.269547 292.639313,169.218246 
	C293.065948,172.041962 295.121155,172.509933 297.928467,172.151489 
	C303.162323,171.483231 306.966797,174.629547 307.687164,179.846603 
	C308.391876,184.950531 306.379578,189.128708 302.273773,191.956299 
	C295.107635,196.891464 287.396729,196.353714 279.923126,192.824661 
	C272.691589,189.409943 269.114136,183.372604 268.590668,175.331604 
	C267.281036,155.215698 286.570709,141.798950 303.258911,142.891891 
	C316.854370,143.782272 325.280029,151.306885 328.373047,164.654648 
	C328.972900,167.243362 329.485535,169.852173 330.057190,172.447586 
	C330.383972,173.931122 330.679260,175.552979 332.667847,175.541306 
	C334.411377,175.531097 335.305786,174.263000 335.878571,172.806808 
	C337.275848,169.254639 336.966156,165.572922 336.271790,161.981689 
	C334.730804,154.011810 336.997803,150.164688 344.719421,146.796722 
	C356.344025,141.726395 382.291656,151.606949 382.785950,171.162903 
	C383.117645,184.287323 370.281311,194.160492 358.917999,189.126862 
	C354.796906,187.301331 352.684662,183.340668 353.534698,178.955536 
	C354.295471,175.030884 356.746307,173.347092 360.679535,173.585800 
	C362.855774,173.717896 364.897217,173.063034 365.365845,170.771484 
	C365.899536,168.161896 363.846039,166.969559 361.786957,166.049591 
	C359.708588,165.121002 357.592926,165.223343 355.440033,165.819183 
	C345.645081,168.530029 341.601166,179.033279 346.808350,188.280792 
	C354.879547,202.614487 376.620117,202.811096 386.132477,188.385254 
	C388.617920,184.615952 391.076843,183.656921 395.171417,184.997528 
	C406.468201,188.696228 414.354614,200.411957 413.173859,212.047165 
	C412.016693,223.450043 401.552429,233.295502 389.570831,234.240509 
	C385.423370,234.567596 381.567871,233.824890 378.483032,230.803864 
	C375.371674,227.756805 374.676666,222.199127 377.105469,218.824356 
	C379.819305,215.053482 383.193481,215.421356 386.743469,217.665878 
	C388.243469,218.614273 389.929108,219.178070 391.213593,217.480133 
	C392.500061,215.779526 392.014709,214.000458 390.706512,212.456512 
	C389.115448,210.578751 386.991180,209.691086 384.606110,209.398209 
	C376.150635,208.359940 369.023651,214.588516 368.258087,223.203812 
	C367.757568,228.836548 370.097351,233.462555 373.072906,238.108719 
	C365.903839,240.956238 361.716400,247.068863 354.697876,250.420914 
z"/>
<path fill="#000000" opacity="1.000000" stroke="none" 
	d="
M265.342468,438.692871 
	C282.897949,459.429169 291.277435,483.808990 296.264832,509.610931 
	C298.677765,522.094055 302.314728,534.152954 307.479279,545.757324 
	C308.205261,547.388550 309.097137,548.945984 310.306488,551.307373 
	C313.741760,544.298889 314.283997,537.589966 314.667023,530.836792 
	C315.520142,515.796814 318.126068,501.111572 323.778961,487.076111 
	C336.206238,456.220673 359.855804,437.988037 390.612396,427.781311 
	C402.827942,423.727539 415.454407,421.589966 428.156189,419.848145 
	C430.085907,419.583527 432.083099,419.811249 434.548187,419.811249 
	C433.876312,429.715668 431.961639,439.073517 429.313629,448.289368 
	C420.272949,479.753448 403.378540,505.417664 374.520447,522.205383 
	C366.265167,527.007751 357.453552,530.551575 348.344940,533.264160 
	C330.576385,538.555603 318.710449,549.287048 315.160034,568.067810 
	C314.776215,570.097961 313.945892,572.002502 311.477570,572.181091 
	C308.928314,572.365601 308.157104,570.401184 307.390472,568.507141 
	C304.199646,560.623596 300.736847,552.908875 295.845520,545.859070 
	C288.354156,535.061829 278.253265,528.315002 265.498352,525.471436 
	C202.336716,511.389954 163.596222,471.069458 142.918549,411.369019 
	C141.449478,407.127533 140.395676,402.743805 139.068420,398.451050 
	C138.012939,395.037323 139.338760,393.276062 142.753830,393.169250 
	C149.744186,392.950592 156.756989,392.490204 163.728745,392.813965 
	C185.729111,393.835754 206.902771,398.264771 226.662491,408.529999 
	C241.343491,416.156830 254.115067,426.116364 265.342468,438.692871 
M246.707352,474.797058 
	C258.473541,486.629822 268.093079,500.328033 279.482483,512.484802 
	C280.810120,513.901917 281.873718,516.044128 284.561249,515.862122 
	C277.745911,487.975800 219.040680,431.677917 194.856110,430.083954 
	C213.950119,443.046967 230.763611,457.885712 246.707352,474.797058 
M352.517517,495.037933 
	C363.610443,481.794128 376.091278,469.902557 388.339661,457.810638 
	C358.899506,473.234985 337.451050,495.887451 325.656464,527.251038 
	C335.508759,517.575500 343.007965,505.940735 352.517517,495.037933 
z"/>
<path fill="#000000" opacity="1.000000" stroke="none" 
	d="
M537.089905,360.523193 
	C536.971558,317.744293 536.958496,275.417999 536.957214,233.091705 
	C536.957153,230.263596 537.212524,227.632690 541.115906,227.722198 
	C560.425354,228.165039 579.788818,226.471268 599.041382,228.757538 
	C608.428162,229.872223 617.170227,232.964462 624.154236,239.882172 
	C637.885010,253.482758 636.630432,277.701965 621.514587,289.514496 
	C620.612366,290.219543 619.753052,290.979553 618.960083,291.641876 
	C619.097717,293.347992 620.403809,293.662354 621.383179,294.113495 
	C635.068665,300.417206 640.413635,311.903595 640.128784,326.073120 
	C639.833740,340.751282 632.874939,351.820282 619.403687,358.276245 
	C612.563538,361.554382 605.230469,363.222260 597.661133,363.275909 
	C579.497498,363.404724 561.332336,363.338287 543.167908,363.299377 
	C540.937927,363.294617 538.328064,363.945648 537.089905,360.523193 
M604.933044,312.805389 
	C602.692932,309.404785 599.479370,307.494476 595.514404,306.924805 
	C587.753784,305.809814 579.943237,306.784607 572.158386,306.511505 
	C569.731018,306.426361 569.219543,308.179993 569.222839,310.232361 
	C569.235413,318.039581 569.274048,325.847443 569.186829,333.653778 
	C569.154297,336.567535 570.295776,337.938385 573.282776,337.892822 
	C580.090637,337.788971 586.903687,337.912048 593.707642,337.708649 
	C598.069519,337.578217 601.924377,335.787109 604.318054,332.086731 
	C608.143860,326.172241 607.673523,319.819031 604.933044,312.805389 
M593.389709,280.104950 
	C600.068542,276.281403 602.628174,271.264648 601.576721,264.058167 
	C600.800171,258.735016 597.371948,254.638824 592.241577,253.513931 
	C586.016846,252.149078 579.667603,252.186798 573.335144,252.595963 
	C570.665649,252.768433 569.086182,253.988174 569.149109,257.021057 
	C569.294189,264.015106 569.247375,271.013092 569.287903,278.009399 
	C569.299744,280.056580 569.868530,281.727600 572.348328,281.626587 
	C579.132019,281.350250 586.012878,282.699463 593.389709,280.104950 
z"/>
<path fill="#000000" opacity="1.000000" stroke="none" 
	d="
M882.984375,363.324585 
	C860.993103,363.322418 839.497253,363.200562 818.004639,363.409302 
	C813.147827,363.456482 811.701721,361.773712 811.717163,357.052765 
	C811.852112,315.896729 811.857483,274.739868 811.715698,233.583893 
	C811.699463,228.872879 813.421814,227.459137 817.886963,227.635559 
	C824.708069,227.905060 831.555115,227.906158 838.376465,227.642288 
	C842.956238,227.465149 844.457764,229.166992 844.437561,233.743958 
	C844.299133,265.068878 844.386841,296.394745 844.396362,327.720306 
	C844.398865,336.000153 844.390320,335.996216 852.925232,335.989349 
	C865.088867,335.979553 877.254639,336.105103 889.415039,335.902679 
	C893.888123,335.828217 895.754089,337.230652 895.428955,341.932983 
	C895.061951,347.239807 895.133728,352.601624 895.403015,357.919861 
	C895.611877,362.044434 894.122803,363.763641 889.976013,363.359375 
	C887.830261,363.150208 885.647217,363.323853 882.984375,363.324585 
z"/>
<path fill="#000000" opacity="1.000000" stroke="none" 
	d="
M770.999878,363.322388 
	C753.833679,363.319397 737.166382,363.214294 720.501953,363.382812 
	C716.235596,363.425964 714.628357,362.102753 714.641846,357.668884 
	C714.767761,316.170380 714.758118,274.671295 714.660339,233.172668 
	C714.650696,229.060226 716.075806,227.520569 720.194092,227.648438 
	C727.353699,227.870728 734.532532,227.909561 741.688843,227.640686 
	C746.068542,227.476135 747.445190,229.051590 747.425110,233.414734 
	C747.278564,265.246521 747.345520,297.079315 747.350159,328.911774 
	C747.351196,335.953888 747.360535,335.974487 754.572754,335.983368 
	C767.072388,335.998779 779.573792,336.106171 792.070679,335.920868 
	C796.577515,335.854065 798.426270,337.464996 798.207520,342.044464 
	C797.953308,347.365051 798.039551,352.711884 798.213745,358.039581 
	C798.337585,361.828522 796.979797,363.491180 792.997803,363.375458 
	C785.837402,363.167389 778.666443,363.320068 770.999878,363.322388 
z"/>
<path fill="#000000" opacity="1.000000" stroke="none" 
	d="
M691.013977,344.997437 
	C690.998230,349.492737 690.828064,353.495636 691.008728,357.482635 
	C691.197815,361.653992 689.756897,363.560669 685.275330,363.393585 
	C677.959412,363.120819 670.621704,363.159790 663.302124,363.373627 
	C659.594543,363.481934 658.455872,362.234497 658.470520,358.487823 
	C658.617310,321.026245 658.589172,283.564026 658.611206,246.101974 
	C658.613953,241.440048 658.716309,236.775635 658.594421,232.117035 
	C658.510498,228.910690 659.872803,227.637695 663.047607,227.682388 
	C670.372070,227.785538 677.703125,227.865723 685.023254,227.660110 
	C689.390320,227.537476 690.999451,229.455521 690.957092,233.610260 
	C690.870605,242.100632 690.965027,250.592743 690.970398,259.084137 
	C690.988220,287.555420 690.999756,316.026733 691.013977,344.997437 
z"/>
<path fill="#000000" opacity="1.000000" stroke="none" 
	d="
M664.713867,402.623260 
	C676.364563,401.805237 684.013794,407.652008 685.237244,417.971527 
	C686.692932,430.249390 680.949951,438.936066 669.769836,440.724304 
	C663.430298,441.738373 657.899719,439.761627 654.087280,434.292725 
	C645.619080,422.145477 650.872803,405.986145 664.713867,402.623260 
M659.784424,417.575073 
	C659.648743,419.709137 659.225830,421.871796 659.435181,423.971466 
	C659.920898,428.843170 664.776550,433.028839 668.835815,432.368530 
	C672.974060,431.695374 676.336060,427.217072 676.598877,422.027985 
	C676.821289,417.638428 673.924316,412.669525 670.473206,411.521271 
	C666.335205,410.144409 662.965515,411.876556 659.784424,417.575073 
z"/>
<path fill="#000000" opacity="1.000000" stroke="none" 
	d="
M612.815308,419.003632 
	C612.820862,414.515259 612.850891,410.525787 612.837585,406.536438 
	C612.825684,402.959412 615.185059,402.736816 617.914246,402.713715 
	C620.708313,402.690094 622.410950,403.570068 622.277222,406.682709 
	C622.213074,408.175415 622.427612,409.687927 622.279602,411.167786 
	C621.833069,415.628632 623.787903,417.573517 628.248352,417.608185 
	C632.885559,417.644196 633.833313,414.957581 633.676331,411.131683 
	C633.615112,409.638367 633.739441,408.137146 633.671509,406.644440 
	C633.546814,403.902527 634.811462,402.730469 637.538391,402.753571 
	C640.210815,402.776245 642.738464,402.885712 642.792542,406.432617 
	C642.949585,416.735046 643.140015,427.037781 642.444580,437.333923 
	C642.250916,440.200989 640.394043,440.327759 638.265137,440.281433 
	C636.016602,440.232513 633.770508,440.214569 633.730042,437.065979 
	C633.706543,435.237762 633.472168,433.382843 633.700378,431.586609 
	C634.258789,427.190369 632.205627,425.548859 628.063965,425.580658 
	C624.116760,425.610992 621.621338,426.850067 622.234070,431.410034 
	C622.409668,432.716553 622.198181,434.070251 622.278320,435.395386 
	C622.469299,438.555511 621.559021,440.355377 617.866150,440.373657 
	C614.245056,440.391571 612.692444,439.136230 612.792786,435.460327 
	C612.937866,430.144775 612.824219,424.822174 612.815308,419.003632 
z"/>
<path fill="#000000" opacity="1.000000" stroke="none" 
	d="
M814.795105,421.480957 
	C809.877319,425.308563 810.708557,429.063934 813.933899,433.121521 
	C815.338867,434.889130 816.660706,436.837555 817.019287,439.231842 
	C806.926575,444.074341 805.330444,434.366180 800.843872,429.617828 
	C798.392273,431.871857 799.311279,434.333862 799.211243,436.477570 
	C799.082642,439.233154 797.809998,440.302246 795.143188,440.296143 
	C792.626465,440.290375 790.255981,440.146362 790.232727,436.872864 
	C790.160461,426.725525 790.168579,416.577362 790.202148,406.429749 
	C790.209961,404.080444 791.362488,402.713867 793.905640,402.783813 
	C797.562134,402.884399 801.266968,402.569794 804.869019,403.049561 
	C814.887817,404.383911 818.859741,411.680542 814.795105,421.480957 
M803.800659,420.269958 
	C806.753235,418.955566 807.599548,416.651093 806.482849,413.776428 
	C805.640015,411.606812 803.661682,411.069885 801.534119,411.523041 
	C798.800781,412.105255 799.338684,414.435028 799.244324,416.333344 
	C799.113037,418.972900 799.713562,421.038269 803.800659,420.269958 
z"/>
<path fill="#000000" opacity="1.000000" stroke="none" 
	d="
M737.490112,417.543213 
	C742.371704,416.163452 740.458069,412.358582 740.921692,409.515808 
	C741.282654,407.302460 740.346924,404.665588 742.826782,403.196686 
	C746.379883,401.091980 750.257080,403.298126 750.288574,407.471497 
	C750.358887,416.783569 750.248230,426.097168 750.344299,435.408752 
	C750.376892,438.558960 749.684509,440.370605 745.949585,440.360474 
	C742.235718,440.350372 740.769592,438.859314 740.978943,435.307404 
	C741.057129,433.981354 740.895691,432.636902 741.026306,431.318970 
	C741.469421,426.849854 739.065674,425.461700 735.064392,425.443085 
	C731.126587,425.424744 729.740967,427.407043 730.052979,431.095001 
	C730.178711,432.581238 730.021362,434.089294 730.092468,435.582672 
	C730.250671,438.903656 728.892456,440.376617 725.394165,440.349670 
	C722.003967,440.323486 720.620667,439.128235 720.667480,435.662323 
	C720.795776,426.185303 720.766357,416.704498 720.655701,407.226837 
	C720.618774,404.065033 721.803040,402.753082 725.029602,402.720459 
	C728.287964,402.687469 730.160461,403.681854 730.044922,407.203705 
	C730.006775,408.365814 730.069214,409.531219 730.085022,410.695099 
	C730.178406,417.546539 730.178284,417.546539 737.490112,417.543213 
z"/>
<path fill="#000000" opacity="1.000000" stroke="none" 
	d="
M852.308167,427.801758 
	C853.373474,431.969086 856.134644,435.228088 855.977966,439.594330 
	C851.575500,440.632141 847.537842,441.526489 845.850708,435.810364 
	C844.871704,432.493134 842.019470,433.006805 839.630615,433.166992 
	C836.859375,433.352844 833.056763,431.740509 831.844238,435.695709 
	C829.965027,441.825226 825.803345,440.493866 821.460449,439.694214 
	C820.888855,436.447083 822.714111,434.059052 823.651794,431.484192 
	C826.553955,423.515167 829.667419,415.623199 832.583679,407.659119 
	C833.718994,404.558655 835.265137,402.686188 839.021240,402.684174 
	C842.598206,402.682251 843.485779,404.898712 844.461365,407.424377 
	C847.037292,414.092926 849.611450,420.762207 852.308167,427.801758 
M837.898071,425.448364 
	C842.179321,424.120056 842.345032,422.329285 838.379150,417.783112 
	C836.651184,420.184875 834.718872,422.350616 837.898071,425.448364 
z"/>
<path fill="#000000" opacity="1.000000" stroke="none" 
	d="
M521.330688,425.750458 
	C512.142700,421.739502 509.701782,418.591919 510.434967,411.985870 
	C510.961517,407.241699 514.104431,403.844391 518.927246,402.806244 
	C525.120300,401.473145 532.077271,403.667938 534.308838,407.461731 
	C535.510986,409.505402 534.255554,410.630859 533.026306,411.689514 
	C531.607666,412.911346 530.311340,414.909943 527.923767,413.408997 
	C526.808289,412.707794 525.771606,411.796539 524.562805,411.348938 
	C522.891968,410.730316 521.039185,410.926025 520.261230,412.726898 
	C519.446899,414.612183 521.232849,415.314545 522.521118,415.980194 
	C525.025635,417.274261 527.712219,418.253082 530.104492,419.719543 
	C535.080688,422.770020 537.157471,427.419983 536.066040,432.337677 
	C535.004211,437.122253 531.627380,439.723602 525.451599,440.491913 
	C520.288818,441.134186 515.570557,440.317474 511.606171,436.572296 
	C509.314697,434.407562 509.904724,432.592346 511.821594,430.645508 
	C513.567749,428.872009 515.198547,427.246490 517.569153,429.863922 
	C518.808411,431.232208 520.360596,432.282043 522.245911,432.531799 
	C523.956665,432.758392 525.721436,432.629578 526.412476,430.689026 
	C527.058533,428.874786 525.672791,427.958221 524.361633,427.182220 
	C523.509338,426.677734 522.568848,426.322235 521.330688,425.750458 
z"/>
<path fill="#000000" opacity="1.000000" stroke="none" 
	d="
M503.935120,411.475830 
	C506.112518,421.251465 502.695679,426.759857 493.398438,428.313965 
	C489.545410,428.958008 487.803711,430.530945 488.271454,434.493530 
	C488.698273,438.109253 487.910675,440.489471 483.299164,440.376373 
	C478.682495,440.263153 478.865692,437.445831 478.870544,434.347412 
	C478.884308,425.552368 478.987946,416.755402 478.833313,407.963135 
	C478.765991,404.136383 480.138123,402.611450 484.069122,402.726776 
	C491.800262,402.953522 499.618835,402.635681 503.935120,411.475830 
M493.808960,412.643463 
	C492.232941,411.729614 490.140198,410.399841 489.066742,412.428314 
	C487.626465,415.149811 487.807739,418.317841 489.098785,421.238708 
	C495.112518,420.187561 496.472931,417.978241 493.808960,412.643463 
z"/>
<path fill="#000000" opacity="1.000000" stroke="none" 
	d="
M884.965088,423.753906 
	C882.471619,426.435638 879.726379,427.988037 876.494751,428.343140 
	C872.485962,428.783691 870.477234,430.569702 871.057922,434.824860 
	C871.670776,439.315826 869.397888,440.726288 865.178040,440.300018 
	C862.634277,440.043091 861.698120,438.833527 861.702576,436.452789 
	C861.721130,426.480560 861.723816,416.508209 861.694702,406.536011 
	C861.687683,404.119598 862.645813,402.754211 865.204468,402.803070 
	C868.850037,402.872681 872.497253,402.538025 876.126343,403.349915 
	C886.223083,405.608704 890.190247,414.313904 884.965088,423.753906 
M875.432739,411.914124 
	C872.286438,410.689331 870.960388,412.125854 871.129517,415.125275 
	C871.250061,417.261505 869.862610,420.419891 872.857117,421.156616 
	C875.593750,421.829926 877.423523,419.512939 878.155884,416.926758 
	C878.714111,414.955902 877.651184,413.414215 875.432739,411.914124 
z"/>
<path fill="#000000" opacity="1.000000" stroke="none" 
	d="
M594.452942,431.649750 
	C598.790710,429.178619 602.648132,427.672028 605.825195,432.710480 
	C602.234253,442.083008 587.781921,442.800629 581.031494,437.179199 
	C574.716187,431.920166 572.552429,420.908691 576.382812,412.348358 
	C579.601624,405.154541 587.457642,401.264496 595.837463,402.648315 
	C598.542053,403.094940 600.958923,404.171448 603.020630,405.898315 
	C604.550049,407.179321 607.332825,408.448334 605.184204,410.959503 
	C603.490967,412.938385 601.491028,415.671722 598.104736,413.068695 
	C594.528198,410.319458 590.816223,409.999390 587.166504,412.969604 
	C583.895752,415.631409 582.774536,421.567963 584.614807,426.342987 
	C586.290771,430.691589 589.460876,432.484497 594.452942,431.649750 
z"/>
<path fill="#000000" opacity="1.000000" stroke="none" 
	d="
M927.335144,411.328583 
	C924.668701,411.374237 922.349182,411.314026 922.443848,414.551056 
	C922.508118,416.746490 922.753418,416.843506 930.829407,418.142822 
	C931.737061,420.257996 931.305481,422.503998 931.240417,424.447418 
	C929.797974,425.838806 928.381470,425.273926 927.112488,425.481628 
	C924.969116,425.832428 922.108582,425.119720 922.329407,428.891357 
	C922.549744,432.654968 925.402954,431.556885 927.521912,431.799591 
	C928.343445,431.893646 929.185730,431.866943 930.014832,431.823578 
	C933.179138,431.658051 934.464478,433.055359 934.407837,436.290924 
	C934.353882,439.375427 932.980042,440.383820 930.117615,440.316437 
	C925.795288,440.214722 921.467468,440.202362 917.145081,440.296814 
	C914.186829,440.361481 912.881226,439.028900 912.885681,436.132629 
	C912.900818,426.319183 912.898987,416.505585 912.860840,406.692200 
	C912.848938,403.628845 914.480896,402.671936 917.292358,402.739990 
	C921.281982,402.836609 925.277466,402.840973 929.267090,402.744537 
	C932.327209,402.670563 934.352722,403.255768 934.357361,407.052368 
	C934.362061,410.864594 932.317871,411.510986 929.267151,411.318817 
	C928.770325,411.287506 928.269470,411.320740 927.335144,411.328583 
z"/>
<path fill="#000000" opacity="1.000000" stroke="none" 
	d="
M764.179932,402.772827 
	C768.653137,402.779602 772.647522,402.850311 776.639282,402.778412 
	C779.389587,402.728882 781.099792,403.542114 781.133972,406.676270 
	C781.166870,409.699432 780.171265,411.507690 776.839722,411.295868 
	C776.177368,411.253723 775.488953,411.202118 774.847412,411.329895 
	C772.830994,411.731598 769.693115,410.111816 769.399414,413.819427 
	C769.110474,417.466888 771.926208,417.673431 774.504333,417.574768 
	C777.739258,417.450958 778.384338,419.153564 778.323669,421.932831 
	C778.268250,424.470520 777.291626,425.410614 774.728821,425.484619 
	C772.559143,425.547272 769.151855,424.158905 769.085754,428.293488 
	C769.012390,432.879303 772.670776,431.691559 775.276001,431.837219 
	C778.131104,431.996735 781.193176,431.530823 781.135620,435.918915 
	C781.099243,438.693085 780.235229,440.353210 777.117371,440.285217 
	C772.627136,440.187256 768.132080,440.187897 763.641418,440.270966 
	C760.566650,440.327820 759.622620,438.771667 759.641174,435.937012 
	C759.704346,426.287109 759.704224,416.636078 759.619690,406.986420 
	C759.594238,404.073792 760.687134,402.579681 764.179932,402.772827 
z"/>
<path fill="#000000" opacity="1.000000" stroke="none" 
	d="
M544.149902,412.752533 
	C542.805359,409.569153 540.673279,407.070221 540.531189,403.831146 
	C547.190491,401.543152 548.944397,402.273651 551.679871,407.968750 
	C552.940552,410.593445 553.649292,413.565491 555.947693,415.633759 
	C560.864502,411.490112 559.179565,399.657837 570.478149,403.337158 
	C571.730896,404.932190 570.788879,406.259186 570.159302,407.565613 
	C568.213196,411.603577 566.393250,415.716156 564.201538,419.618469 
	C561.455994,424.507050 559.597717,429.503204 560.285522,435.228790 
	C560.699829,438.677460 559.430115,440.411713 555.566406,440.351959 
	C552.044556,440.297394 550.496521,438.808960 550.983704,435.558014 
	C552.268982,426.981812 547.737915,420.216064 544.149902,412.752533 
z"/>
<path fill="#000000" opacity="1.000000" stroke="none" 
	d="
M691.798096,411.269043 
	C687.511353,410.564667 688.790955,407.545807 688.855286,405.302826 
	C688.929016,402.730286 691.124634,402.830902 692.946594,402.817047 
	C699.091553,402.770233 705.237366,402.821869 711.382080,402.757660 
	C714.052063,402.729736 715.359192,403.778717 715.300476,406.584503 
	C715.247253,409.126190 715.043335,411.510132 711.712097,411.233368 
	C707.052551,410.846344 706.152344,413.277893 706.294556,417.292389 
	C706.517944,423.595886 706.280579,429.914307 706.384766,436.224030 
	C706.434570,439.245514 705.119507,440.315521 702.189331,440.308319 
	C699.179749,440.300934 697.518555,439.462830 697.591370,436.070312 
	C697.730347,429.595886 697.445618,423.109802 697.679016,416.640900 
	C697.827026,412.540710 696.350830,410.725861 691.798096,411.269043 
z"/>
<path fill="#000000" opacity="1.000000" stroke="none" 
	d="
M904.210327,434.816711 
	C904.641663,439.332703 902.600525,440.420227 898.861816,440.339539 
	C894.839294,440.252777 894.854919,437.723083 894.857361,434.940125 
	C894.865417,425.799774 894.925537,416.658936 894.849792,407.519287 
	C894.822571,404.236511 895.964539,402.660217 899.498840,402.688446 
	C902.899902,402.715607 904.272156,403.997986 904.229919,407.416962 
	C904.118958,416.389679 904.203003,425.364746 904.210327,434.816711 
z"/>
</svg>